<?xml version="1.0" encoding="UTF-8"?>
<svg width="390" height="844" viewBox="0 0 390 844" fill="none" xmlns="http://www.w3.org/2000/svg">
  <!-- 背景 - 深空蓝 -->
  <rect width="390" height="844" fill="#001220"/>
  
  <!-- 定义 -->
  <defs>
    <pattern id="grid" x="0" y="0" width="40" height="40" patternUnits="userSpaceOnUse">
      <path d="M 40 0 L 0 0 0 40" fill="none" stroke="#FF0055" stroke-width="0.5" opacity="0.1"/>
    </pattern>
    
    <!-- 霓虹发光效果 -->
    <filter id="neonGlow">
      <feGaussianBlur stdDeviation="3" result="coloredBlur"/>
      <feMerge>
        <feMergeNode in="coloredBlur"/>
        <feMergeNode in="SourceGraphic"/>
      </feMerge>
    </filter>
    
    <!-- 警告发光 -->
    <filter id="warningGlow">
      <feGaussianBlur stdDeviation="5" result="coloredBlur"/>
      <feComposite in="coloredBlur" in2="SourceGraphic" operator="over"/>
      <feComposite in="coloredBlur" in2="SourceGraphic" operator="over"/>
      <feComposite in="SourceGraphic" in2="SourceGraphic" operator="over"/>
    </filter>
    
    <!-- 玻璃拟态效果 -->
    <filter id="glassmorphism" x="-50%" y="-50%" width="200%" height="200%">
      <feGaussianBlur in="SourceGraphic" stdDeviation="10"/>
      <feColorMatrix type="matrix" values="1 0 0 0 0  0 1 0 0 0  0 0 1 0 0  0 0 0 0.3 0"/>
    </filter>
  </defs>
  
  <!-- 网格背景 -->
  <rect width="390" height="844" fill="url(#grid)"/>
  
  <!-- 顶部状态栏 -->
  <rect x="0" y="0" width="390" height="44" fill="#001220" opacity="0.8"/>
  <text x="20" y="30" font-family="SF Pro Display, Poppins" font-size="14" fill="#FFFFFF">9:41</text>
  <g transform="translate(350, 18)">
    <rect x="0" y="6" width="3" height="4" rx="0.5" fill="#FFFFFF"/>
    <rect x="4" y="4" width="3" height="6" rx="0.5" fill="#FFFFFF"/>
    <rect x="8" y="2" width="3" height="8" rx="0.5" fill="#FFFFFF"/>
    <rect x="12" y="0" width="3" height="10" rx="0.5" fill="#FFFFFF"/>
    <rect x="20" y="2" width="20" height="8" rx="2" fill="none" stroke="#FFFFFF" stroke-width="1"/>
    <rect x="22" y="4" width="14" height="4" rx="0.5" fill="#FFFFFF"/>
  </g>
  
  <!-- 导航栏 -->
  <rect x="0" y="44" width="390" height="80" fill="#FFFFFF" opacity="0.05" filter="url(#glassmorphism)"/>
  <rect x="0" y="123" width="390" height="1" fill="#FF0055" opacity="0.3"/>
  
  <!-- 标题和通知 -->
  <text x="20" y="90" font-family="思源黑体" font-size="22" fill="#FFFFFF">📋 订单管理</text>
  <g transform="translate(280, 70)">
    <rect x="0" y="0" width="40" height="30" rx="15" fill="#FF0055" filter="url(#warningGlow)"/>
    <text x="20" y="20" font-family="Poppins" font-size="14" fill="#FFFFFF" text-anchor="middle" font-weight="bold">🔔 3</text>
  </g>
  
  <!-- 搜索和筛选栏 -->
  <g transform="translate(20, 140)">
    <!-- 搜索框 -->
    <rect x="0" y="0" width="260" height="40" rx="8" fill="#FFFFFF" opacity="0.08"/>
    <rect x="0" y="0" width="260" height="40" rx="8" fill="none" stroke="#FF0055" stroke-width="1" opacity="0.5" filter="url(#neonGlow)"/>
    <text x="15" y="26" font-family="思源黑体" font-size="14" fill="#FFFFFF" opacity="0.5">🔍 搜索订单号、包间...</text>
    
    <!-- 筛选按钮 -->
    <rect x="270" y="0" width="80" height="40" rx="8" fill="#FF0055" opacity="0.2"/>
    <rect x="270" y="0" width="80" height="40" rx="8" fill="none" stroke="#FF0055" stroke-width="1" filter="url(#neonGlow)"/>
    <text x="310" y="26" font-family="思源黑体" font-size="14" fill="#FFFFFF" text-anchor="middle">筛选 ▼</text>
  </g>
  
  <!-- 状态标签栏 -->
  <g transform="translate(20, 200)">
    <!-- 全部 - 选中 -->
    <rect x="0" y="0" width="80" height="32" rx="16" fill="#FF0055" opacity="0.3"/>
    <rect x="0" y="0" width="80" height="32" rx="16" fill="none" stroke="#FF0055" stroke-width="1" filter="url(#neonGlow)"/>
    <text x="40" y="21" font-family="思源黑体" font-size="12" fill="#FFFFFF" text-anchor="middle">全部 (12)</text>
    
    <!-- 待处理 -->
    <rect x="90" y="0" width="80" height="32" rx="16" fill="#FFFFFF" opacity="0.05"/>
    <rect x="90" y="0" width="80" height="32" rx="16" fill="none" stroke="#FFFFFF" stroke-width="1" opacity="0.3"/>
    <text x="130" y="21" font-family="思源黑体" font-size="12" fill="#FFFFFF" text-anchor="middle" opacity="0.8">待处理 (3)</text>
    
    <!-- 进行中 -->
    <rect x="180" y="0" width="80" height="32" rx="16" fill="#FFFFFF" opacity="0.05"/>
    <rect x="180" y="0" width="80" height="32" rx="16" fill="none" stroke="#FFFFFF" stroke-width="1" opacity="0.3"/>
    <text x="220" y="21" font-family="思源黑体" font-size="12" fill="#FFFFFF" text-anchor="middle" opacity="0.8">进行中 (5)</text>
    
    <!-- 已完成 -->
    <rect x="270" y="0" width="80" height="32" rx="16" fill="#FFFFFF" opacity="0.05"/>
    <rect x="270" y="0" width="80" height="32" rx="16" fill="none" stroke="#FFFFFF" stroke-width="1" opacity="0.3"/>
    <text x="310" y="21" font-family="思源黑体" font-size="12" fill="#FFFFFF" text-anchor="middle" opacity="0.8">已完成 (4)</text>
  </g>
  
  <!-- 订单列表 -->
  <g transform="translate(20, 250)">
    <!-- 紧急订单 -->
    <rect x="0" y="0" width="350" height="110" rx="8" fill="#FFFFFF" opacity="0.05"/>
    <rect x="0" y="0" width="350" height="110" rx="8" fill="none" stroke="#FF0055" stroke-width="1" filter="url(#warningGlow)"/>
    
    <!-- 紧急标签 -->
    <rect x="10" y="10" width="60" height="24" rx="12" fill="#FF0055" filter="url(#warningGlow)"/>
    <text x="40" y="26" font-family="思源黑体" font-size="12" fill="#FFFFFF" text-anchor="middle" font-weight="bold">🚨 紧急</text>
    
    <!-- 订单信息 -->
    <text x="80" y="28" font-family="Poppins" font-size="14" fill="#FFFFFF">#202509190001</text>
    <text x="250" y="28" font-family="思源黑体" font-size="12" fill="#FF0055">3分钟前</text>
    
    <text x="10" y="55" font-family="思源黑体" font-size="14" fill="#FFFFFF">📍 包间A | 🍷 点单订单</text>
    <text x="10" y="75" font-family="思源黑体" font-size="12" fill="#FFFFFF" opacity="0.8">青岛啤酒 x2, 薯片 x1, 果盘 x1</text>
    
    <!-- 操作按钮 -->
    <rect x="180" y="80" width="80" height="28" rx="14" fill="#00FF88" filter="url(#neonGlow)"/>
    <text x="220" y="98" font-family="思源黑体" font-size="12" fill="#001220" text-anchor="middle" font-weight="bold">接单</text>
    
    <rect x="270" y="80" width="70" height="28" rx="14" fill="none" stroke="#FF0055" stroke-width="1" opacity="0.5"/>
    <text x="305" y="98" font-family="思源黑体" font-size="12" fill="#FF0055" text-anchor="middle">拒绝</text>
  </g>
  
  <!-- 进行中订单 -->
  <g transform="translate(20, 370)">
    <rect x="0" y="0" width="350" height="110" rx="8" fill="#FFFFFF" opacity="0.05"/>
    <rect x="0" y="0" width="350" height="110" rx="8" fill="none" stroke="#00FF88" stroke-width="1" opacity="0.5" filter="url(#neonGlow)"/>
    
    <!-- 状态标签 -->
    <rect x="10" y="10" width="60" height="24" rx="12" fill="#00FF88" opacity="0.3"/>
    <text x="40" y="26" font-family="思源黑体" font-size="12" fill="#00FF88" text-anchor="middle">进行中</text>
    
    <!-- 订单信息 -->
    <text x="80" y="28" font-family="Poppins" font-size="14" fill="#FFFFFF">#202509190002</text>
    <text x="250" y="28" font-family="思源黑体" font-size="12" fill="#00FF88">15分钟前</text>
    
    <text x="10" y="55" font-family="思源黑体" font-size="14" fill="#FFFFFF">📍 包间C | 🎤 预订订单</text>
    <text x="10" y="75" font-family="思源黑体" font-size="12" fill="#FFFFFF" opacity="0.8">👥 6人 | ⏰ 今晚20:00 | 💰 ¥288</text>
    
    <!-- 进度条 -->
    <rect x="10" y="90" width="200" height="4" rx="2" fill="#FFFFFF" opacity="0.1"/>
    <rect x="10" y="90" width="120" height="4" rx="2" fill="#00FF88" filter="url(#neonGlow)"/>
    
    <!-- 操作按钮 -->
    <rect x="240" y="80" width="100" height="28" rx="14" fill="none" stroke="#FFA500" stroke-width="1" opacity="0.5"/>
    <text x="290" y="98" font-family="思源黑体" font-size="12" fill="#FFA500" text-anchor="middle">查看详情</text>
  </g>
  
  <!-- 已完成订单 -->
  <g transform="translate(20, 490)">
    <rect x="0" y="0" width="350" height="110" rx="8" fill="#FFFFFF" opacity="0.05"/>
    <rect x="0" y="0" width="350" height="110" rx="8" fill="none" stroke="#FFFFFF" stroke-width="1" opacity="0.3"/>
    
    <!-- 状态标签 -->
    <rect x="10" y="10" width="60" height="24" rx="12" fill="#FFFFFF" opacity="0.1"/>
    <text x="40" y="26" font-family="思源黑体" font-size="12" fill="#FFFFFF" text-anchor="middle" opacity="0.6">已完成</text>
    
    <!-- 订单信息 -->
    <text x="80" y="28" font-family="Poppins" font-size="14" fill="#FFFFFF" opacity="0.8">#202509190003</text>
    <text x="250" y="28" font-family="思源黑体" font-size="12" fill="#FFFFFF" opacity="0.5">1小时前</text>
    
    <text x="10" y="55" font-family="思源黑体" font-size="14" fill="#FFFFFF" opacity="0.8">📍 包间B | 🍷 点单订单</text>
    <text x="10" y="75" font-family="思源黑体" font-size="12" fill="#FFFFFF" opacity="0.6">洋酒套餐 x1, 小食拼盘 x2</text>
    
    <!-- 评价标签 -->
    <rect x="10" y="82" width="80" height="24" rx="12" fill="#FFA500" opacity="0.2"/>
    <text x="50" y="97" font-family="思源黑体" font-size="12" fill="#FFA500" text-anchor="middle">⭐ 已评价</text>
    
    <!-- 操作按钮 -->
    <rect x="270" y="80" width="70" height="28" rx="14" fill="none" stroke="#FFFFFF" stroke-width="1" opacity="0.3"/>
    <text x="305" y="98" font-family="思源黑体" font-size="12" fill="#FFFFFF" text-anchor="middle" opacity="0.6">归档</text>
  </g>
  
  <!-- 统计信息悬浮栏 -->
  <g transform="translate(20, 620)">
    <rect x="0" y="0" width="350" height="60" rx="8" fill="#FFFFFF" opacity="0.08" filter="url(#glassmorphism)"/>
    <rect x="0" y="0" width="350" height="60" rx="8" fill="none" stroke="#FF0055" stroke-width="1" opacity="0.3" filter="url(#neonGlow)"/>
    
    <text x="20" y="25" font-family="思源黑体" font-size="14" fill="#FFFFFF">今日订单统计</text>
    
    <g transform="translate(20, 35)">
      <text x="0" y="0" font-family="思源黑体" font-size="12" fill="#00FF88">✅ 完成: 45</text>
      <text x="100" y="0" font-family="思源黑体" font-size="12" fill="#FFA500">⏳ 处理中: 5</text>
      <text x="200" y="0" font-family="思源黑体" font-size="12" fill="#FF0055">❌ 取消: 2</text>
    </g>
  </g>
  
  <!-- 底部操作栏 -->
  <g transform="translate(20, 700)">
    <rect x="0" y="0" width="350" height="60" rx="30" fill="#FFFFFF" opacity="0.08" filter="url(#glassmorphism)"/>
    <rect x="0" y="0" width="350" height="60" rx="30" fill="none" stroke="#FF0055" stroke-width="1" opacity="0.5" filter="url(#neonGlow)"/>
    
    <!-- 批量操作 -->
    <rect x="15" y="15" width="100" height="30" rx="15" fill="#FF0055" opacity="0.2"/>
    <text x="65" y="35" font-family="思源黑体" font-size="14" fill="#FF0055" text-anchor="middle">批量处理</text>
    
    <!-- 导出报表 -->
    <rect x="125" y="15" width="100" height="30" rx="15" fill="#FFFFFF" opacity="0.05"/>
    <rect x="125" y="15" width="100" height="30" rx="15" fill="none" stroke="#FFFFFF" stroke-width="1" opacity="0.3"/>
    <text x="175" y="35" font-family="思源黑体" font-size="14" fill="#FFFFFF" text-anchor="middle" opacity="0.8">导出报表</text>
    
    <!-- 扫码接单 -->
    <rect x="235" y="15" width="100" height="30" rx="15" fill="#00FF88" opacity="0.3"/>
    <rect x="235" y="15" width="100" height="30" rx="15" fill="none" stroke="#00FF88" stroke-width="1" filter="url(#neonGlow)"/>
    <text x="285" y="35" font-family="思源黑体" font-size="14" fill="#00FF88" text-anchor="middle">扫码接单</text>
  </g>
  
  <!-- 底部导航 -->
  <rect x="0" y="784" width="390" height="60" fill="#FFFFFF" opacity="0.05" filter="url(#glassmorphism)"/>
  <rect x="0" y="784" width="390" height="1" fill="#FF0055" opacity="0.3"/>
  
  <g transform="translate(0, 794)">
    <!-- 仪表盘 -->
    <g transform="translate(40, 0)">
      <rect x="0" y="0" width="30" height="30" rx="4" stroke="#FFFFFF" stroke-width="1.5" fill="none" opacity="0.5"/>
      <circle cx="8" cy="8" r="2" fill="#FFFFFF" opacity="0.5"/>
      <circle cx="22" cy="8" r="2" fill="#FFFFFF" opacity="0.5"/>
      <rect x="8" y="15" width="14" height="8" rx="2" fill="#FFFFFF" opacity="0.5"/>
      <text x="15" y="45" font-family="思源黑体" font-size="10" fill="#FFFFFF" text-anchor="middle" opacity="0.6">仪表盘</text>
    </g>
    
    <!-- 订单管理 - 激活 -->
    <g transform="translate(120, 0)">
      <rect x="-5" y="-5" width="40" height="40" rx="8" fill="#FF0055" opacity="0.2"/>
      <rect x="0" y="0" width="30" height="30" rx="4" stroke="#FF0055" stroke-width="2" fill="none" filter="url(#neonGlow)"/>
      <path d="M7 10H23M7 15H23M7 20H18" stroke="#FF0055" stroke-width="2" filter="url(#neonGlow)"/>
      <text x="15" y="45" font-family="思源黑体" font-size="10" fill="#FF0055" text-anchor="middle">订单</text>
    </g>
    
    <!-- 商品管理 -->
    <g transform="translate(200, 0)">
      <rect x="0" y="5" width="30" height="20" rx="2" stroke="#FFFFFF" stroke-width="1.5" fill="none" opacity="0.5"/>
      <path d="M10 5V2M20 5V2" stroke="#FFFFFF" stroke-width="1.5" opacity="0.5"/>
      <text x="15" y="45" font-family="思源黑体" font-size="10" fill="#FFFFFF" text-anchor="middle" opacity="0.6">商品</text>
    </g>
    
    <!-- 数据分析 -->
    <g transform="translate(280, 0)">
      <path d="M5 25L10 15L15 20L25 5" stroke="#FFFFFF" stroke-width="1.5" fill="none" opacity="0.5"/>
      <text x="15" y="45" font-family="思源黑体" font-size="10" fill="#FFFFFF" text-anchor="middle" opacity="0.6">数据</text>
    </g>
  </g>
  
  <!-- 动态粒子效果 -->
  <circle cx="60" cy="320" r="2" fill="#FF0055" opacity="0.6" filter="url(#neonGlow)">
    <animate attributeName="opacity" values="0.6;1;0.6" dur="2s" repeatCount="indefinite"/>
  </circle>
  
  <circle cx="330" cy="540" r="1.5" fill="#00FF88" opacity="0.5" filter="url(#neonGlow)">
    <animate attributeName="opacity" values="0.5;0.9;0.5" dur="3s" repeatCount="indefinite"/>
  </circle>
</svg>
